<svg width="15" height="16" viewBox="0 0 15 16" fill="none" xmlns="http://www.w3.org/2000/svg">
<path d="M7.06434 3.8938C6.71218 3.8938 6.36794 4.00835 6.07513 4.22296C5.78233 4.43757 5.55411 4.74261 5.41935 5.0995C5.28458 5.45638 5.24932 5.84909 5.31803 6.22796C5.38673 6.60683 5.55631 6.95484 5.80532 7.22799C6.05433 7.50114 6.37159 7.68716 6.71697 7.76252C7.06236 7.83788 7.42037 7.7992 7.74571 7.65138C8.07106 7.50355 8.34914 7.25321 8.54479 6.93202C8.74044 6.61083 8.84486 6.23322 8.84486 5.84692C8.84432 5.3291 8.65656 4.83266 8.32276 4.46651C7.98897 4.10035 7.5364 3.89439 7.06434 3.8938ZM7.06434 6.82349C6.88826 6.82349 6.71614 6.76621 6.56973 6.65891C6.42333 6.5516 6.30922 6.39908 6.24184 6.22064C6.17446 6.04219 6.15683 5.84584 6.19118 5.65641C6.22553 5.46697 6.31032 5.29296 6.43483 5.15639C6.55933 5.01982 6.71796 4.92681 6.89066 4.88913C7.06335 4.85144 7.24235 4.87078 7.40503 4.9447C7.5677 5.01861 7.70674 5.14378 7.80456 5.30437C7.90239 5.46497 7.9546 5.65378 7.9546 5.84692C7.95433 6.10583 7.86044 6.35405 7.69355 6.53713C7.52665 6.7202 7.30037 6.82319 7.06434 6.82349Z" fill="white"/>
<path d="M10.4858 2.09091C9.63988 1.16319 8.51063 0.612087 7.31604 0.543963C6.12145 0.47584 4.9462 0.895527 4.01711 1.72202C3.08802 2.54852 2.47096 3.72324 2.28502 5.01945C2.09908 6.31566 2.35745 7.64148 3.01025 8.74103L6.37396 14.4055C6.44882 14.5315 6.55116 14.6351 6.67173 14.7068C6.7923 14.7785 6.92726 14.816 7.0644 14.816C7.20154 14.816 7.33651 14.7785 7.45707 14.7068C7.57764 14.6351 7.67999 14.5315 7.75484 14.4055L11.1187 8.74103C11.7244 7.72104 11.9921 6.50366 11.8769 5.29292C11.7616 4.08218 11.2705 2.95169 10.4858 2.09091V2.09091ZM10.3727 8.20798L7.06442 13.779L3.75606 8.20798C2.74339 6.50269 2.96059 4.22058 4.2725 2.78143C4.63913 2.37924 5.0744 2.06021 5.55344 1.84255C6.03247 1.62488 6.54591 1.51285 7.06442 1.51285C7.58292 1.51285 8.09636 1.62488 8.57539 1.84255C9.05443 2.06021 9.48969 2.37924 9.85633 2.78143C11.1682 4.22058 11.3854 6.50269 10.3727 8.20798Z" fill="white"/>
</svg>
