<svg width="12" height="16" viewBox="0 0 12 16" fill="none" xmlns="http://www.w3.org/2000/svg">
<path d="M10.7249 10.9054C10.0841 10.6937 9.45467 10.449 8.8391 10.1724C8.69208 10.0884 8.52588 10.0439 8.35658 10.043C8.18728 10.042 8.02061 10.0848 7.8727 10.1672C7.67497 10.302 7.10719 10.676 6.51771 11.0619C4.92333 9.84167 3.77864 8.12715 3.2629 6.1868C3.84182 5.78921 4.3854 5.40716 4.60113 5.27915C4.73383 5.17402 4.83716 5.03642 4.90111 4.87966C4.96505 4.72289 4.98745 4.55228 4.96614 4.38432C4.94613 3.7087 4.96115 3.0325 5.01114 2.35844C5.01914 2.27293 5.00964 2.18668 4.98323 2.10496C4.95681 2.02324 4.91403 1.94775 4.8575 1.8831C4.80096 1.81845 4.73185 1.76599 4.65437 1.72891C4.5769 1.69184 4.49269 1.67093 4.40688 1.66746L1.76392 1.14178C1.65287 1.12993 1.5412 1.15764 1.44856 1.22003C1.35593 1.28242 1.28828 1.37549 1.25751 1.48285C0.61243 3.8344 1.43542 6.65209 1.60782 7.19589L1.60412 7.2145L1.62715 7.29325C2.25997 9.16096 3.37433 10.8287 4.85773 12.128V12.128L4.97879 12.2327C5.5338 12.6849 7.75314 14.4163 10.0919 14.7041C10.2037 14.7184 10.3169 14.6924 10.4113 14.6308C10.5057 14.5692 10.5751 14.4761 10.607 14.368L11.1321 11.7281C11.1617 11.6475 11.1746 11.5617 11.17 11.476C11.1654 11.3902 11.1434 11.3063 11.1053 11.2293C11.0672 11.1523 11.0138 11.0839 10.9484 11.0282C10.883 10.9726 10.807 10.9308 10.7249 10.9054Z" stroke="white" stroke-linecap="round" stroke-linejoin="round"/>
</svg>
