<svg width="24" height="19" viewBox="0 0 24 19" fill="none" xmlns="http://www.w3.org/2000/svg">
<path d="M4.04169 0.0415039H19.75C20.7114 0.0415039 21.6335 0.423423 22.3133 1.10324C22.9931 1.78306 23.375 2.70509 23.375 3.6665V14.5415C23.375 15.5029 22.9931 16.4249 22.3133 17.1048C21.6335 17.7846 20.7114 18.1665 19.75 18.1665H4.04169C3.08028 18.1665 2.15824 17.7846 1.47843 17.1048C0.798606 16.4249 0.416687 15.5029 0.416687 14.5415V3.6665C0.416687 2.70509 0.798606 1.78306 1.47843 1.10324C2.15824 0.423423 3.08028 0.0415039 4.04169 0.0415039ZM4.04169 1.24984C3.4747 1.24889 2.92561 1.44832 2.4914 1.81292L11.8959 7.91984L21.3003 1.81292C20.866 1.4485 20.317 1.24909 19.75 1.24984H4.04169ZM11.8959 9.36017L1.78694 2.7965C1.67974 3.07403 1.62484 3.369 1.62502 3.6665V14.5415C1.62502 15.1824 1.87963 15.7971 2.33285 16.2503C2.78606 16.7036 3.40075 16.9582 4.04169 16.9582H19.75C20.391 16.9582 21.0056 16.7036 21.4589 16.2503C21.9121 15.7971 22.1667 15.1824 22.1667 14.5415V3.6665C22.1667 3.35959 22.1099 3.06596 22.0048 2.7965L11.8959 9.35896V9.36017Z" fill="#5B8603"/>
</svg>
