<svg width="24" height="26" viewBox="0 0 24 26" fill="none" xmlns="http://www.w3.org/2000/svg">
<path d="M11.9027 6.47949C11.3094 6.47949 10.7293 6.6701 10.236 7.02722C9.74265 7.38433 9.35814 7.89191 9.13107 8.48577C8.90401 9.07963 8.8446 9.7331 8.96036 10.3635C9.07611 10.994 9.36183 11.5731 9.78139 12.0276C10.2009 12.4821 10.7355 12.7916 11.3174 12.917C11.8994 13.0424 12.5026 12.9781 13.0508 12.7321C13.5989 12.4861 14.0675 12.0696 14.3971 11.5351C14.7268 11.0006 14.9027 10.3723 14.9027 9.72949C14.9018 8.86784 14.5854 8.04176 14.023 7.43248C13.4606 6.8232 12.6981 6.48047 11.9027 6.47949ZM11.9027 11.3545C11.606 11.3545 11.316 11.2592 11.0694 11.0806C10.8227 10.9021 10.6304 10.6483 10.5169 10.3514C10.4034 10.0544 10.3737 9.72769 10.4315 9.41247C10.4894 9.09725 10.6323 8.8077 10.8421 8.58044C11.0518 8.35318 11.3191 8.19842 11.6101 8.13572C11.901 8.07301 12.2026 8.1052 12.4767 8.22819C12.7508 8.35118 12.9851 8.55946 13.1499 8.82669C13.3147 9.09392 13.4027 9.4081 13.4027 9.72949C13.4023 10.1603 13.2441 10.5734 12.9629 10.878C12.6817 11.1826 12.3004 11.354 11.9027 11.3545Z" fill="#5B8603"/>
<path d="M17.6675 3.47911C16.2422 1.93538 14.3395 1.01834 12.3267 0.904986C10.314 0.791628 8.33378 1.48999 6.76836 2.86528C5.20295 4.24057 4.16326 6.1953 3.84997 8.3522C3.53668 10.5091 3.972 12.7153 5.0719 14.5449L10.7394 23.9706C10.8655 24.1803 11.038 24.3526 11.2411 24.4719C11.4443 24.5912 11.6717 24.6537 11.9027 24.6537C12.1338 24.6537 12.3612 24.5912 12.5643 24.4719C12.7675 24.3526 12.9399 24.1803 13.0661 23.9706L18.7338 14.5449C19.7543 12.8476 20.2054 10.8219 20.0112 8.80725C19.8171 6.79259 18.9896 4.91144 17.6675 3.47911V3.47911ZM17.4769 13.6579L11.9028 22.928L6.32852 13.6579C4.62227 10.8203 4.98823 7.02288 7.19867 4.62814C7.81641 3.95889 8.54978 3.42802 9.35691 3.06583C10.164 2.70364 11.0291 2.51722 11.9028 2.51722C12.7764 2.51722 13.6415 2.70364 14.4486 3.06583C15.2557 3.42802 15.9891 3.95889 16.6069 4.62814C18.8173 7.02288 19.1832 10.8203 17.4769 13.6579Z" fill="#5B8603"/>
</svg>
