<svg width="20" height="25" viewBox="0 0 20 25" fill="none" xmlns="http://www.w3.org/2000/svg">
<path d="M17.8609 17.9374C16.7163 17.5736 15.592 17.1533 14.4925 16.678C14.2299 16.5337 13.933 16.4571 13.6306 16.4555C13.3282 16.454 13.0305 16.5275 12.7663 16.6691C12.4132 16.9007 11.399 17.5433 10.3461 18.2062C7.49823 16.1097 5.45361 13.164 4.53241 9.83021C5.56647 9.1471 6.5374 8.49069 6.92272 8.27076C7.15976 8.09013 7.34432 7.85371 7.45854 7.58438C7.57276 7.31504 7.61278 7.0219 7.57471 6.73333C7.53896 5.57253 7.56578 4.41074 7.65508 3.25261C7.66937 3.10569 7.65241 2.95751 7.60523 2.8171C7.55805 2.67669 7.48163 2.547 7.38064 2.43592C7.27966 2.32484 7.15621 2.23471 7.01783 2.17101C6.87945 2.10732 6.72904 2.07139 6.57576 2.06543L1.85497 1.16225C1.65661 1.14189 1.45714 1.18949 1.29168 1.29669C1.12622 1.40388 1.00538 1.56378 0.950432 1.74825C-0.201805 5.7885 1.26821 10.6296 1.57614 11.5639L1.56952 11.5959L1.61067 11.7312C2.741 14.9402 4.73144 17.8055 7.38106 20.038V20.038L7.5973 20.2178C8.58865 20.9948 12.5528 23.9695 16.7302 24.464C16.9299 24.4885 17.1322 24.4439 17.3007 24.3381C17.4693 24.2322 17.5932 24.0722 17.6503 23.8865L18.5882 19.3509C18.6411 19.2124 18.6641 19.065 18.6559 18.9176C18.6477 18.7703 18.6084 18.6261 18.5403 18.4938C18.4723 18.3616 18.3769 18.244 18.2601 18.1484C18.1433 18.0527 18.0075 17.9809 17.8609 17.9374Z" stroke="#5B8603" stroke-linecap="round" stroke-linejoin="round"/>
</svg>
